<svg version="1.1" id="Layer_1" xmlns="http://www.w3.org/2000/svg" xmlns:xlink="http://www.w3.org/1999/xlink" x="0px" y="0px"
	 width="100%" viewBox="0 0 197 225" enable-background="new 0 0 197 225" xml:space="preserve">
<path fill="#FEFEFF" opacity="1.000000" stroke="none" 
	d="
M102.000000,226.000000 
	C68.019859,226.000000 34.539711,226.000000 1.029784,226.000000 
	C1.029784,151.064316 1.029784,76.128624 1.029784,1.096463 
	C66.563309,1.096463 132.126816,1.096463 197.845154,1.096463 
	C197.845154,75.999748 197.845154,150.999847 197.845154,226.000000 
	C166.128891,226.000000 134.314453,226.000000 102.000000,226.000000 
M173.684189,143.888168 
	C176.176849,141.364120 178.669495,138.840073 181.790802,136.047684 
	C188.019058,131.844650 191.462952,126.390213 190.195572,118.506676 
	C189.779800,115.920433 189.822632,113.167694 190.189224,110.566277 
	C191.188004,103.479050 189.577087,97.608559 183.010468,93.004982 
	C180.406937,90.635490 177.803406,88.265999 174.848663,85.316223 
	C170.230438,80.549881 165.612213,75.783539 160.629990,70.454521 
	C156.421036,66.297249 152.212097,62.139973 147.645386,57.423588 
	C143.438766,53.261467 139.232132,49.099346 134.662323,44.374573 
	C130.128372,39.868752 125.594414,35.362930 120.687737,30.301039 
	C119.436966,29.045525 118.203011,27.772713 116.932251,26.537775 
	C113.299423,23.007372 109.651649,19.492357 105.718460,15.370982 
	C99.101089,6.762692 98.866287,6.736527 91.354012,14.313917 
	C90.194939,15.483028 89.169281,16.784405 87.480370,18.320545 
	C81.722214,24.234262 75.964058,30.147978 69.608253,36.384766 
	C67.058250,39.211056 64.508247,42.037346 61.349384,45.164310 
	C54.452065,52.060642 47.554741,58.956974 40.089867,66.158134 
	C34.271320,72.055824 28.452772,77.953514 22.048729,84.122078 
	C16.855326,89.471611 9.792774,94.008232 7.010196,100.406258 
	C4.387104,106.437576 6.267263,114.429115 6.175915,121.558449 
	C6.156770,123.052696 6.020143,124.570877 6.235561,126.034180 
	C6.392401,127.099564 6.782036,128.349731 7.508687,129.077240 
	C12.893072,134.467926 18.387939,139.748260 24.088160,145.692535 
	C29.330389,150.820999 34.572617,155.949463 40.095219,161.696381 
	C45.319786,166.832047 50.544353,171.967712 56.012718,177.735779 
	C61.312878,182.922745 66.613029,188.109695 72.177658,193.879089 
	C75.347328,196.962646 78.516998,200.046204 81.993744,203.740341 
	C86.038521,207.734528 90.083290,211.728714 94.420403,216.372467 
	C96.102158,218.218582 97.765129,220.629272 100.477577,217.950821 
	C103.967377,214.504745 107.271873,210.871017 111.215157,207.059265 
	C115.007378,203.137756 118.799606,199.216232 123.161949,195.040466 
	C126.437035,191.682816 129.712112,188.325165 133.591873,184.690964 
	C137.054153,181.102661 140.516449,177.514343 144.581894,173.652832 
	C148.126526,169.909882 151.671173,166.166946 155.834000,162.122787 
	C159.308517,158.534332 162.783051,154.945877 166.867294,151.084793 
	C168.922043,148.755127 170.976791,146.425476 173.684189,143.888168 
z"/>
<path fill="#7122CF" opacity="1.000000" stroke="none" 
	d="
M23.848091,145.063278 
	C18.387939,139.748260 12.893072,134.467926 7.508687,129.077240 
	C6.782036,128.349731 6.392401,127.099564 6.235561,126.034180 
	C6.020143,124.570877 6.156770,123.052696 6.175915,121.558449 
	C6.267263,114.429115 4.387104,106.437576 7.010196,100.406258 
	C9.792774,94.008232 16.855326,89.471611 22.707144,84.029793 
	C24.237232,84.540207 25.108904,85.142906 25.705387,85.950806 
	C23.321287,88.279449 21.169147,90.362015 19.113663,92.535965 
	C16.077406,95.747200 11.520665,98.591240 10.491726,102.374931 
	C9.009716,107.824684 10.113082,113.977493 10.113082,121.017578 
	C14.762336,116.702965 18.379154,113.346474 22.123312,110.290482 
	C22.900564,111.425552 23.550478,112.260132 24.054005,113.400436 
	C19.752228,118.037354 15.596835,122.368553 10.282670,127.907547 
	C16.544039,133.558716 22.138445,138.607925 27.346409,143.812012 
	C25.922674,144.332352 24.885382,144.697815 23.848091,145.063278 
z"/>
<path fill="#7ED0FD" opacity="1.000000" stroke="none" 
	d="
M183.236496,93.598816 
	C189.577087,97.608559 191.188004,103.479050 190.189224,110.566277 
	C189.822632,113.167694 189.779800,115.920433 190.195572,118.506676 
	C191.462952,126.390213 188.019058,131.844650 181.321823,135.833862 
	C180.574661,134.434357 180.296463,133.248672 180.171600,131.759094 
	C182.211792,129.037888 185.235931,126.833092 185.736099,124.156616 
	C186.629593,119.375519 186.073318,114.307083 185.885498,109.367813 
	C185.868271,108.915306 184.135941,108.528023 182.889130,107.962082 
	C182.049667,106.869850 181.521118,105.925980 181.124084,104.671844 
	C182.225830,103.319908 183.196075,102.278229 184.234634,101.163223 
	C183.348816,99.733551 182.599487,98.524200 181.916504,96.924896 
	C182.400726,95.556244 182.818619,94.577530 183.236496,93.598816 
z"/>
<path fill="#7448D9" opacity="1.000000" stroke="none" 
	d="
M40.657417,65.853310 
	C47.554741,58.956974 54.452065,52.060642 61.666420,45.444489 
	C62.008457,46.872334 62.033463,48.019997 61.918331,49.464066 
	C56.041485,55.582821 50.304779,61.405170 44.180000,67.077744 
	C42.747093,66.569756 41.702255,66.211533 40.657417,65.853310 
z"/>
<path fill="#7233D4" opacity="1.000000" stroke="none" 
	d="
M40.373642,66.005722 
	C41.702255,66.211533 42.747093,66.569756 43.999382,67.376228 
	C38.131416,73.798195 32.056000,79.771896 25.980579,85.745598 
	C25.108904,85.142906 24.237232,84.540207 22.999891,83.894356 
	C28.452772,77.953514 34.271320,72.055824 40.373642,66.005722 
z"/>
<path fill="#7E7BE6" opacity="1.000000" stroke="none" 
	d="
M88.081924,18.024612 
	C89.169281,16.784405 90.194939,15.483028 91.354012,14.313917 
	C98.866287,6.736527 99.101089,6.762692 105.827744,15.985571 
	C105.292694,17.392748 104.648361,18.185337 103.697998,18.823887 
	C101.716965,17.196941 100.041969,15.724034 98.586990,14.444603 
	C95.451172,16.676437 92.817154,18.551123 90.117508,20.071926 
	C89.395226,19.153564 88.738579,18.589087 88.081924,18.024612 
z"/>
<path fill="#7E6EE3" opacity="1.000000" stroke="none" 
	d="
M87.781143,18.172577 
	C88.738579,18.589087 89.395226,19.153564 89.961464,20.351475 
	C87.787422,23.451900 85.878220,26.097969 83.575912,28.340446 
	C80.714584,31.127424 77.528297,33.580784 74.056419,36.127354 
	C72.488953,36.071548 71.347427,36.066620 70.205902,36.061691 
	C75.964058,30.147978 81.722214,24.234262 87.781143,18.172577 
z"/>
<path fill="#7233D4" opacity="1.000000" stroke="none" 
	d="
M23.968124,145.377899 
	C24.885382,144.697815 25.922674,144.332352 27.623470,143.952423 
	C33.178040,148.961411 38.069107,153.984833 42.694809,159.198822 
	C41.557911,159.952240 40.686378,160.515091 39.814842,161.077942 
	C34.572617,155.949463 29.330389,150.820999 23.968124,145.377899 
z"/>
<path fill="#7C88EA" opacity="1.000000" stroke="none" 
	d="
M104.004036,18.977924 
	C104.648361,18.185337 105.292694,17.392748 105.973389,16.285725 
	C109.651649,19.492357 113.299423,23.007372 116.932251,26.537775 
	C118.203011,27.772713 119.436966,29.045525 120.810883,30.987343 
	C120.511299,32.682697 120.088585,33.691750 119.380478,34.496464 
	C114.064735,29.187395 109.034386,24.082661 104.004036,18.977924 
z"/>
<path fill="#7140D7" opacity="1.000000" stroke="none" 
	d="
M39.955032,161.387161 
	C40.686378,160.515091 41.557911,159.952240 43.005318,159.334198 
	C48.933449,164.763718 54.285709,170.248413 59.252563,175.880646 
	C57.834408,176.386581 56.801662,176.744965 55.768921,177.103363 
	C50.544353,171.967712 45.319786,166.832047 39.955032,161.387161 
z"/>
<path fill="#7554DC" opacity="1.000000" stroke="none" 
	d="
M55.890816,177.419571 
	C56.801662,176.744965 57.834408,176.386581 59.534527,176.009979 
	C64.158310,180.261093 68.114723,184.530396 72.050430,189.247925 
	C71.990875,190.896301 71.952034,192.096481 71.913193,193.296646 
	C66.613029,188.109695 61.312878,182.922745 55.890816,177.419571 
z"/>
<path fill="#7FBEF8" opacity="1.000000" stroke="none" 
	d="
M160.993988,71.017197 
	C165.612213,75.783539 170.230438,80.549881 174.710541,85.756485 
	C174.008987,86.899490 173.445572,87.602226 172.568939,88.167595 
	C168.051544,83.599197 163.847366,79.168175 159.794830,74.367218 
	C160.295639,73.003922 160.644821,72.010559 160.993988,71.017197 
z"/>
<path fill="#7B95EE" opacity="1.000000" stroke="none" 
	d="
M119.665863,34.700798 
	C120.088585,33.691750 120.511299,32.682697 120.997238,31.265379 
	C125.594414,35.362930 130.128372,39.868752 134.786560,45.058777 
	C134.490219,46.737907 134.069656,47.732830 133.365021,48.520481 
	C128.609268,43.775738 124.137566,39.238266 119.665863,34.700798 
z"/>
<path fill="#787AE6" opacity="1.000000" stroke="none" 
	d="
M110.656189,207.318115 
	C107.271873,210.871017 103.967377,214.504745 100.477577,217.950821 
	C97.765129,220.629272 96.102158,218.218582 94.428253,215.765915 
	C95.040848,214.274948 95.645607,213.390533 96.593605,212.671127 
	C98.316322,212.307190 99.895576,212.044388 101.031815,211.191437 
	C103.113548,209.628708 104.933777,207.717621 107.261032,206.004822 
	C108.658089,206.477966 109.657143,206.898041 110.656189,207.318115 
z"/>
<path fill="#7CAAF3" opacity="1.000000" stroke="none" 
	d="
M155.215805,162.423996 
	C151.671173,166.166946 148.126526,169.909882 144.212372,173.431976 
	C142.794571,172.758698 141.746277,172.306290 140.887939,171.571045 
	C145.398087,166.968979 149.718292,162.649704 154.031586,158.687256 
	C154.421722,160.170700 154.818771,161.297348 155.215805,162.423996 
z"/>
<path fill="#786FE3" opacity="1.000000" stroke="none" 
	d="
M96.250366,212.506119 
	C95.645607,213.390533 95.040848,214.274948 94.282074,215.441132 
	C90.083290,211.728714 86.038521,207.734528 82.210876,203.394714 
	C83.272057,202.414169 84.116104,201.779221 85.262810,201.271515 
	C89.127106,205.101212 92.688736,208.803665 96.250366,212.506119 
z"/>
<path fill="#7DAFF5" opacity="1.000000" stroke="none" 
	d="
M160.811981,70.735855 
	C160.644821,72.010559 160.295639,73.003922 159.510681,74.158920 
	C154.933167,70.124321 150.791473,65.928093 146.800995,61.359070 
	C147.302521,59.985088 147.652832,58.983894 148.003143,57.982697 
	C152.212097,62.139973 156.421036,66.297249 160.811981,70.735855 
z"/>
<path fill="#7CA0F0" opacity="1.000000" stroke="none" 
	d="
M147.824265,57.703140 
	C147.652832,58.983894 147.302521,59.985088 146.516907,61.151245 
	C141.937424,57.120056 137.793259,52.923904 133.649078,48.727753 
	C134.069656,47.732830 134.490219,46.737907 134.968140,45.340103 
	C139.232132,49.099346 143.438766,53.261467 147.824265,57.703140 
z"/>
<path fill="#725EDF" opacity="1.000000" stroke="none" 
	d="
M84.960144,201.144287 
	C84.116104,201.779221 83.272057,202.414169 82.057343,203.089447 
	C78.516998,200.046204 75.347328,196.962646 72.045425,193.587860 
	C71.952034,192.096481 71.990875,190.896301 72.382294,189.342773 
	C76.809959,193.041046 80.885056,197.092667 84.960144,201.144287 
z"/>
<path fill="#7A85E9" opacity="1.000000" stroke="none" 
	d="
M110.935669,207.188690 
	C109.657143,206.898041 108.658089,206.477966 107.412079,205.702652 
	C111.024635,201.530350 114.884148,197.713257 119.146591,193.958466 
	C120.563622,194.445419 121.577728,194.870071 122.591843,195.294708 
	C118.799606,199.216232 115.007378,203.137756 110.935669,207.188690 
z"/>
<path fill="#7AB5F6" opacity="1.000000" stroke="none" 
	d="
M155.524902,162.273392 
	C154.818771,161.297348 154.421722,160.170700 154.176331,158.365875 
	C157.279938,154.809982 160.231903,151.932281 163.474930,149.197266 
	C164.596512,150.012451 165.427032,150.684937 166.257568,151.357422 
	C162.783051,154.945877 159.308517,158.534332 155.524902,162.273392 
z"/>
<path fill="#7B95EE" opacity="1.000000" stroke="none" 
	d="
M122.876892,195.167603 
	C121.577728,194.870071 120.563622,194.445419 119.333229,193.673584 
	C123.003250,189.522522 126.889557,185.718613 131.136444,181.976898 
	C131.993744,183.015228 132.490463,183.991364 132.987198,184.967514 
	C129.712112,188.325165 126.437035,191.682816 122.876892,195.167603 
z"/>
<path fill="#7CA0F0" opacity="1.000000" stroke="none" 
	d="
M133.289536,184.829239 
	C132.490463,183.991364 131.993744,183.015228 131.304230,181.680573 
	C134.306976,178.165985 137.502487,175.009933 140.697998,171.853867 
	C141.746277,172.306290 142.794571,172.758698 143.910797,173.568573 
	C140.516449,177.514343 137.054153,181.102661 133.289536,184.829239 
z"/>
<path fill="#83CBFC" opacity="1.000000" stroke="none" 
	d="
M172.882141,88.304977 
	C173.445572,87.602226 174.008987,86.899490 174.886139,86.046631 
	C177.803406,88.265999 180.406937,90.635490 183.123474,93.301895 
	C182.818619,94.577530 182.400726,95.556244 181.608246,96.780273 
	C178.449829,94.118713 175.665985,91.211845 172.882141,88.304977 
z"/>
<path fill="#7151DC" opacity="1.000000" stroke="none" 
	d="
M69.907074,36.223228 
	C71.347427,36.066620 72.488953,36.071548 73.875404,36.425888 
	C70.099709,40.906086 66.079086,45.036873 62.058468,49.167664 
	C62.033463,48.019997 62.008457,46.872334 61.970848,45.294151 
	C64.508247,42.037346 67.058250,39.211056 69.907074,36.223228 
z"/>
<path fill="#8CCBFB" opacity="1.000000" stroke="none" 
	d="
M180.018280,132.062973 
	C180.296463,133.248672 180.574661,134.434357 181.007492,135.968033 
	C178.669495,138.840073 176.176849,141.364120 173.310745,143.614456 
	C172.554108,142.411407 172.170929,141.482056 171.904327,140.261749 
	C174.686722,137.334854 177.352509,134.698914 180.018280,132.062973 
z"/>
<path fill="#8BC3F9" opacity="1.000000" stroke="none" 
	d="
M171.787735,140.552719 
	C172.170929,141.482056 172.554108,142.411407 172.984436,143.718292 
	C170.976791,146.425476 168.922043,148.755127 166.562439,151.221100 
	C165.427032,150.684937 164.596512,150.012451 163.586365,148.891098 
	C166.200409,145.812393 168.994080,143.182556 171.787735,140.552719 
z"/>
<path fill="#FBFBFE" opacity="1.000000" stroke="none" 
	d="
M61.918327,49.464066 
	C66.079086,45.036873 70.099709,40.906086 74.301346,36.476765 
	C77.528297,33.580784 80.714584,31.127424 83.575912,28.340446 
	C85.878220,26.097969 87.787422,23.451900 90.027100,20.705357 
	C92.817154,18.551123 95.451172,16.676437 98.586990,14.444603 
	C100.041969,15.724034 101.716965,17.196941 103.697998,18.823887 
	C109.034386,24.082661 114.064735,29.187395 119.380478,34.496464 
	C124.137566,39.238266 128.609268,43.775738 133.365021,48.520481 
	C137.793259,52.923904 141.937424,57.120056 146.365692,61.524033 
	C150.791473,65.928093 154.933167,70.124321 159.359039,74.528854 
	C163.847366,79.168175 168.051544,83.599197 172.568939,88.167603 
	C175.665985,91.211845 178.449829,94.118713 181.541916,97.170212 
	C182.599487,98.524200 183.348816,99.733551 184.234634,101.163223 
	C183.196075,102.278229 182.225830,103.319908 180.845108,104.846527 
	C178.285812,107.547440 176.136993,109.763405 173.678375,112.104752 
	C169.926239,115.864853 166.483887,119.499588 162.742676,123.267113 
	C158.691544,127.308128 154.939255,131.216354 150.887115,135.269989 
	C146.634659,139.576675 142.682053,143.737961 138.449387,148.056198 
	C134.700836,151.936050 131.232330,155.658951 127.433960,159.507751 
	C123.386688,163.367828 119.669281,167.101974 115.651978,170.993011 
	C110.555008,175.866440 105.757935,180.583008 100.698547,184.953461 
	C100.334000,178.466736 100.231781,172.326111 100.419983,166.020844 
	C107.825050,158.611816 114.939697,151.367401 122.354004,143.970276 
	C127.776321,138.562820 132.898972,133.308060 138.321762,127.906227 
	C143.105042,123.228760 147.588165,118.698372 152.365494,114.001984 
	C154.436035,111.874214 156.212387,109.912445 158.311981,107.863136 
	C166.475983,100.501511 166.474152,100.462181 157.732162,93.825500 
	C156.362137,92.682228 155.254196,91.736404 153.984985,90.507187 
	C152.431580,88.699959 151.039474,87.176132 149.475189,85.351120 
	C146.882477,82.627716 144.461960,80.205498 141.990112,77.470352 
	C141.018372,76.426147 140.097946,75.694862 138.852661,74.850479 
	C136.710983,72.761848 134.894150,70.786331 132.893921,68.531937 
	C130.157623,65.708801 127.604736,63.164543 124.993774,60.332939 
	C124.085533,59.346203 123.235359,58.646809 122.045403,57.841354 
	C119.842972,55.732994 117.980324,53.730698 115.938660,51.445831 
	C112.889206,48.326862 110.018768,45.490459 106.988441,42.367710 
	C104.796822,39.962742 102.777206,37.832329 100.729546,35.729221 
	C99.079079,34.034065 97.443649,33.593628 95.630981,36.056099 
	C92.494370,39.102299 89.661308,42.010036 86.528854,45.056686 
	C82.777260,48.780094 79.325043,52.364586 75.570183,56.072792 
	C73.153816,58.406681 71.040100,60.616856 68.624512,62.979111 
	C64.896660,66.759941 61.470676,70.388695 57.738228,74.153336 
	C54.279522,77.499161 51.127277,80.709076 47.696472,84.104492 
	C43.531902,88.301659 39.645897,92.313332 35.461487,96.510147 
	C30.774046,101.126846 26.385010,105.558411 21.995972,109.989983 
	C18.379154,113.346474 14.762336,116.702965 10.113082,121.017578 
	C10.113082,113.977493 9.009716,107.824684 10.491726,102.374931 
	C11.520665,98.591240 16.077406,95.747200 19.113663,92.535965 
	C21.169147,90.362015 23.321287,88.279449 25.705389,85.950806 
	C32.056000,79.771896 38.131416,73.798195 44.387455,67.526001 
	C50.304779,61.405170 56.041485,55.582821 61.918327,49.464066 
z"/>
<path fill="#FCFBFE" opacity="1.000000" stroke="none" 
	d="
M171.904327,140.261749 
	C168.994080,143.182556 166.200409,145.812393 163.295319,148.748413 
	C160.231903,151.932281 157.279938,154.809982 154.183228,158.009064 
	C149.718292,162.649704 145.398087,166.968979 140.887939,171.571045 
	C137.502487,175.009933 134.306976,178.165985 130.943665,181.618378 
	C126.889557,185.718613 123.003250,189.522522 118.930305,193.611298 
	C114.884148,197.713257 111.024635,201.530350 107.014084,205.649597 
	C104.933777,207.717621 103.113548,209.628708 101.031815,211.191437 
	C99.895576,212.044388 98.316322,212.307190 96.593613,212.671127 
	C92.688736,208.803665 89.127106,205.101212 85.262817,201.271530 
	C80.885056,197.092667 76.809959,193.041046 72.403000,188.894562 
	C68.114723,184.530396 64.158310,180.261093 59.919937,175.862442 
	C54.285709,170.248413 48.933449,164.763718 43.270679,159.143646 
	C38.069107,153.984833 33.178040,148.961411 28.009911,143.797546 
	C22.138445,138.607925 16.544039,133.558716 10.282670,127.907547 
	C15.596835,122.368553 19.752228,118.037354 24.387020,113.349548 
	C28.901951,108.972794 32.937477,104.952644 37.280708,100.804184 
	C41.452316,96.644775 45.316219,92.613678 49.465187,88.368477 
	C53.896175,83.788414 58.042103,79.422462 62.486298,74.923325 
	C65.548187,71.910957 68.311813,69.031776 71.379356,66.005966 
	C74.292099,63.300468 76.900917,60.741611 79.807785,58.066498 
	C83.567314,54.378677 87.028793,50.807114 90.782135,47.109329 
	C92.701569,45.983444 94.329140,44.983791 95.934265,44.452759 
	C95.771049,50.778648 95.630272,56.635910 95.195038,62.632061 
	C92.902313,64.832932 90.904053,66.894920 88.609795,69.105423 
	C85.202820,72.487167 82.091843,75.720413 78.679741,79.099113 
	C74.250198,83.495644 70.121773,87.746712 65.693192,92.141251 
	C62.248447,95.490448 59.103851,98.696167 55.682716,102.089363 
	C51.929237,105.820374 48.452301,109.363914 44.669525,113.049988 
	C40.845482,116.678215 37.374500,120.213394 33.792027,123.631721 
	C31.509321,125.809860 31.483725,127.766327 33.783772,129.925323 
	C37.153427,133.088318 40.442535,136.337128 43.902740,139.831207 
	C46.647171,142.605865 49.254826,145.098694 51.978470,147.881683 
	C54.406418,150.397903 56.718372,152.624008 59.171417,155.161072 
	C61.859531,157.693909 64.406555,159.915802 67.097572,162.438354 
	C69.803360,165.508301 72.365150,168.277588 75.101608,171.327362 
	C77.517090,173.744705 79.757912,175.881577 82.135559,178.316879 
	C84.173485,180.440140 85.371872,183.679199 88.982796,182.353760 
	C90.452835,184.941223 91.968033,187.146912 93.679001,189.619614 
	C95.773552,191.153824 96.248535,195.857742 100.395752,192.295013 
	C106.181091,186.521240 111.651581,180.910263 117.416786,175.122314 
	C121.499619,171.031723 125.287720,167.118103 129.375275,163.045090 
	C133.981491,158.342484 138.288223,153.799255 142.906250,149.169464 
	C147.048981,145.149994 150.880417,141.217072 154.990936,137.173157 
	C158.178696,134.025787 161.087372,130.989410 164.313889,127.853287 
	C168.458771,123.577942 172.285828,119.402351 176.448639,115.143715 
	C178.922928,112.743935 181.061478,110.427193 183.200027,108.110451 
	C184.135941,108.528023 185.868271,108.915306 185.885498,109.367813 
	C186.073318,114.307083 186.629593,119.375519 185.736099,124.156616 
	C185.235931,126.833092 182.211792,129.037888 180.171600,131.759094 
	C177.352509,134.698914 174.686722,137.334854 171.904327,140.261749 
z"/>
<path fill="#702DD2" opacity="1.000000" stroke="none" 
	d="
M36.973007,100.932503 
	C32.937477,104.952644 28.901951,108.972794 24.533407,113.043823 
	C23.550478,112.260132 22.900564,111.425552 22.123312,110.290482 
	C26.385010,105.558411 30.774046,101.126846 35.532608,96.908615 
	C36.259094,98.392136 36.616051,99.662323 36.973007,100.932503 
z"/>
<path fill="#83CBFC" opacity="1.000000" stroke="none" 
	d="
M182.889130,107.962082 
	C181.061478,110.427193 178.922928,112.743935 176.315353,114.842262 
	C175.226929,113.742355 174.607544,112.860863 173.988159,111.979370 
	C176.136993,109.763405 178.285812,107.547440 180.713593,105.156784 
	C181.521118,105.925980 182.049667,106.869850 182.889130,107.962082 
z"/>
<path fill="#F8F8FE" opacity="1.000000" stroke="none" 
	d="
M139.177536,74.963577 
	C140.097946,75.694862 141.018372,76.426147 141.608337,77.546768 
	C141.205078,79.542747 140.531372,81.487846 141.200821,82.676437 
	C142.196289,84.443855 144.141312,85.676453 145.872543,87.417725 
	C147.776825,89.421616 149.490784,91.144440 151.308533,93.176491 
	C153.289948,95.264046 155.167587,97.042366 157.182404,99.133682 
	C156.624741,101.319038 155.929916,103.191414 154.937561,105.206299 
	C153.397568,106.803581 152.155106,108.258362 150.559250,109.806427 
	C149.483566,109.905190 148.761261,109.910667 147.891998,109.630264 
	C146.157181,107.929810 144.569366,106.515221 142.700806,104.917938 
	C140.632736,102.779221 138.845413,100.823204 136.878998,98.591232 
	C135.060562,96.755775 133.421249,95.196259 131.537079,93.381355 
	C128.530350,90.404144 125.768478,87.682312 122.728806,84.785301 
	C120.370621,82.372025 118.290237,80.133926 116.036903,77.606247 
	C112.996445,74.400681 110.128937,71.484703 107.025124,68.341347 
	C97.162964,61.563015 100.840286,51.958340 100.235214,42.280609 
	C102.659920,44.276333 104.173256,45.521931 105.812439,47.046326 
	C108.847755,50.148373 111.757240,52.971615 114.789154,56.071201 
	C115.801552,57.325085 116.684563,58.309071 117.582832,59.278931 
	C120.037849,61.929619 121.427231,60.710243 122.385185,57.947414 
	C123.235359,58.646809 124.085533,59.346203 124.647522,60.426491 
	C122.100601,61.393734 121.661621,62.486652 123.368103,64.238045 
	C126.130852,67.073509 128.872772,69.929276 131.741867,73.052788 
	C132.748779,74.293175 133.655563,75.241188 134.522385,76.224396 
	C136.940231,78.966858 138.296371,77.858528 139.177536,74.963577 
z"/>
<path fill="#7022CF" opacity="1.000000" stroke="none" 
	d="
M105.686600,46.767529 
	C104.173256,45.521931 102.659920,44.276333 100.235214,42.280609 
	C100.840286,51.958340 97.162964,61.563015 106.936462,68.711212 
	C106.121925,69.850624 105.159744,70.392799 103.906319,70.759079 
	C101.437378,68.989433 99.259689,67.395683 97.051910,65.431618 
	C96.511040,64.205261 96.000259,63.349220 95.489487,62.493176 
	C95.630272,56.635910 95.771049,50.778648 95.998528,44.012291 
	C96.034996,40.708012 95.984756,38.312824 95.934517,35.917637 
	C97.443649,33.593628 99.079079,34.034065 100.729546,35.729221 
	C102.777206,37.832329 104.796822,39.962742 106.909424,42.798737 
	C106.555725,44.599918 106.121162,45.683723 105.686600,46.767529 
z"/>
<path fill="#7DC7FB" opacity="1.000000" stroke="none" 
	d="
M100.080894,192.457794 
	C96.248535,195.857742 95.773552,191.153824 94.021011,189.402924 
	C94.782425,187.287979 95.397598,185.656754 95.977036,183.556244 
	C95.933922,180.624649 96.144859,178.137604 95.869576,175.705612 
	C95.421875,171.750336 94.656105,167.831085 94.022202,163.517944 
	C94.533501,162.348190 95.047188,161.557129 95.855202,160.817261 
	C97.044975,161.224609 97.940422,161.580734 98.899338,162.302155 
	C99.351738,163.840118 99.740654,165.012802 100.129562,166.185486 
	C100.231781,172.326111 100.334000,178.466736 100.528381,185.289185 
	C100.440659,188.133255 100.260780,190.295532 100.080894,192.457794 
z"/>
<path fill="#7A85E9" opacity="1.000000" stroke="none" 
	d="
M100.419983,166.020844 
	C99.740654,165.012802 99.351738,163.840118 99.105804,162.032867 
	C106.390030,154.358551 113.531273,147.318817 120.824295,140.661041 
	C121.335495,142.069656 121.694916,143.096329 122.054337,144.123001 
	C114.939697,151.367401 107.825050,158.611816 100.419983,166.020844 
z"/>
<path fill="#7882E9" opacity="1.000000" stroke="none" 
	d="
M100.395752,192.295013 
	C100.260780,190.295532 100.440659,188.133255 100.790703,185.635284 
	C105.757935,180.583008 110.555008,175.866440 115.698120,171.376602 
	C116.403465,172.835297 116.762764,174.067291 117.122063,175.299271 
	C111.651581,180.910263 106.181091,186.521240 100.395752,192.295013 
z"/>
<path fill="#7C97EE" opacity="1.000000" stroke="none" 
	d="
M122.354004,143.970276 
	C121.694916,143.096329 121.335495,142.069656 120.960548,140.392090 
	C126.177422,134.577667 131.409836,129.414139 136.795898,124.628357 
	C137.306900,126.021843 137.664261,127.037575 138.021606,128.053299 
	C132.898972,133.308060 127.776321,138.562820 122.354004,143.970276 
z"/>
<path fill="#7DA6F2" opacity="1.000000" stroke="none" 
	d="
M138.321762,127.906227 
	C137.664261,127.037575 137.306900,126.021843 136.935257,124.363220 
	C139.340652,121.220749 141.921387,118.850800 144.093796,116.152161 
	C144.866699,115.192047 144.648178,113.433823 145.219528,112.005524 
	C146.384216,111.286133 147.211594,110.601143 148.038971,109.916153 
	C148.761261,109.910667 149.483566,109.905190 150.611404,110.193390 
	C151.368393,111.714035 151.719849,112.941002 152.071289,114.167976 
	C147.588165,118.698372 143.105042,123.228760 138.321762,127.906227 
z"/>
<path fill="#84C2F9" opacity="1.000000" stroke="none" 
	d="
M173.678375,112.104744 
	C174.607544,112.860863 175.226929,113.742355 175.979614,114.925301 
	C172.285828,119.402351 168.458771,123.577942 164.311432,127.496124 
	C163.674591,125.870575 163.358063,124.502449 163.041534,123.134331 
	C166.483887,119.499588 169.926239,115.864853 173.678375,112.104744 
z"/>
<path fill="#743FD7" opacity="1.000000" stroke="none" 
	d="
M37.280708,100.804184 
	C36.616051,99.662323 36.259094,98.392136 35.831009,96.723480 
	C39.645897,92.313332 43.531902,88.301659 47.744511,84.501663 
	C48.440781,86.003090 48.810452,87.292839 49.180122,88.582581 
	C45.316219,92.613678 41.452316,96.644775 37.280708,100.804184 
z"/>
<path fill="#77A5F2" opacity="1.000000" stroke="none" 
	d="
M154.711853,137.284149 
	C150.880417,141.217072 147.048981,145.149994 142.519287,149.013626 
	C140.790497,148.595978 139.759979,148.247620 138.729446,147.899261 
	C142.682053,143.737961 146.634659,139.576675 151.187042,135.416412 
	C152.761826,136.039673 153.736832,136.661911 154.711853,137.284149 
z"/>
<path fill="#7899EF" opacity="1.000000" stroke="none" 
	d="
M138.449387,148.056198 
	C139.759979,148.247620 140.790497,148.595978 142.207993,149.100189 
	C138.288223,153.799255 133.981491,158.342484 129.316788,162.644348 
	C128.560501,161.395935 128.162155,160.388901 127.763824,159.381851 
	C131.232330,155.658951 134.700836,151.936050 138.449387,148.056198 
z"/>
<path fill="#7244D8" opacity="1.000000" stroke="none" 
	d="
M49.465187,88.368477 
	C48.810452,87.292839 48.440781,86.003090 48.023071,84.316177 
	C51.127277,80.709076 54.279522,77.499161 58.094376,74.188751 
	C59.900669,74.411018 61.044350,74.733765 62.188030,75.056511 
	C58.042103,79.422462 53.896175,83.788414 49.465187,88.368477 
z"/>
<path fill="#87B8F6" opacity="1.000000" stroke="none" 
	d="
M154.990936,137.173157 
	C153.736832,136.661911 152.761826,136.039673 151.486877,135.271011 
	C154.939255,131.216354 158.691544,127.308128 162.742676,123.267113 
	C163.358063,124.502449 163.674591,125.870575 163.993591,127.595863 
	C161.087372,130.989410 158.178696,134.025787 154.990936,137.173157 
z"/>
<path fill="#7668E2" opacity="1.000000" stroke="none" 
	d="
M90.490273,47.235550 
	C87.028793,50.807114 83.567314,54.378677 79.470367,57.908775 
	C77.847557,57.227898 76.860199,56.588486 75.872833,55.949074 
	C79.325043,52.364586 82.777260,48.780094 86.893478,45.125259 
	C88.535080,45.781792 89.512672,46.508671 90.490273,47.235550 
z"/>
<path fill="#768BEB" opacity="1.000000" stroke="none" 
	d="
M127.433960,159.507751 
	C128.162155,160.388901 128.560501,161.395935 129.017334,162.803726 
	C125.287720,167.118103 121.499619,171.031723 117.416786,175.122314 
	C116.762764,174.067291 116.403465,172.835297 115.998016,171.219727 
	C119.669281,167.101974 123.386688,163.367828 127.433960,159.507751 
z"/>
<path fill="#84C5FA" opacity="1.000000" stroke="none" 
	d="
M155.235092,105.063782 
	C155.929916,103.191414 156.624741,101.319038 157.171204,98.783035 
	C157.346664,96.753922 157.670456,95.388435 157.994263,94.022949 
	C166.474152,100.462181 166.475983,100.501511 158.284134,107.539352 
	C157.033737,106.556679 156.134415,105.810234 155.235092,105.063782 
z"/>
<path fill="#7151DC" opacity="1.000000" stroke="none" 
	d="
M62.486298,74.923325 
	C61.044350,74.733765 59.900669,74.411018 58.400841,74.052856 
	C61.470676,70.388695 64.896660,66.759941 68.758560,63.283360 
	C69.821465,64.341217 70.448448,65.246910 71.075432,66.152603 
	C68.311813,69.031776 65.548187,71.910957 62.486298,74.923325 
z"/>
<path fill="#713BD6" opacity="1.000000" stroke="none" 
	d="
M105.812439,47.046326 
	C106.121162,45.683723 106.555725,44.599918 107.069313,43.085087 
	C110.018768,45.490459 112.889206,48.326862 115.863892,51.871185 
	C115.534332,53.651024 115.100533,54.722942 114.666725,55.794861 
	C111.757240,52.971615 108.847755,50.148373 105.812439,47.046326 
z"/>
<path fill="#786FE3" opacity="1.000000" stroke="none" 
	d="
M131.623489,72.776482 
	C128.872772,69.929276 126.130852,67.073509 123.368103,64.238045 
	C121.661621,62.486652 122.100601,61.393734 124.705589,60.713840 
	C127.604736,63.164543 130.157623,65.708801 132.829407,68.946838 
	C132.506699,70.685905 132.065094,71.731194 131.623489,72.776482 
z"/>
<path fill="#7E77E5" opacity="1.000000" stroke="none" 
	d="
M90.782135,47.109325 
	C89.512672,46.508671 88.535080,45.781792 87.192856,44.986343 
	C89.661308,42.010036 92.494370,39.102299 95.630981,36.056099 
	C95.984756,38.312824 96.034996,40.708012 96.020966,43.543667 
	C94.329140,44.983791 92.701569,45.983444 90.782135,47.109325 
z"/>
<path fill="#6F57DE" opacity="1.000000" stroke="none" 
	d="
M71.379356,66.005966 
	C70.448448,65.246910 69.821465,64.341217 69.060432,63.131275 
	C71.040100,60.616856 73.153816,58.406681 75.570183,56.072792 
	C76.860199,56.588486 77.847557,57.227898 79.172325,58.025032 
	C76.900917,60.741611 74.292099,63.300468 71.379356,66.005966 
z"/>
<path fill="#7899EF" opacity="1.000000" stroke="none" 
	d="
M145.682220,87.136658 
	C144.141312,85.676453 142.196289,84.443855 141.200821,82.676437 
	C140.531372,81.487846 141.205078,79.542747 141.659653,77.859688 
	C144.461960,80.205498 146.882477,82.627716 149.077225,85.527206 
	C147.795029,86.381874 146.738632,86.759262 145.682220,87.136658 
z"/>
<path fill="#7AB5F6" opacity="1.000000" stroke="none" 
	d="
M154.937561,105.206291 
	C156.134415,105.810234 157.033737,106.556679 157.960907,107.626907 
	C156.212387,109.912445 154.436035,111.874214 152.365494,114.001984 
	C151.719849,112.941002 151.368393,111.714035 150.964798,110.100098 
	C152.155106,108.258362 153.397568,106.803581 154.937561,105.206291 
z"/>
<path fill="#77A5F2" opacity="1.000000" stroke="none" 
	d="
M145.872543,87.417725 
	C146.738632,86.759262 147.795029,86.381874 149.249390,85.828400 
	C151.039474,87.176132 152.431580,88.699959 153.826035,90.775162 
	C152.953827,91.840118 152.079285,92.353699 151.204742,92.867264 
	C149.490784,91.144440 147.776825,89.421616 145.872543,87.417725 
z"/>
<path fill="#787AE6" opacity="1.000000" stroke="none" 
	d="
M131.741867,73.052788 
	C132.065094,71.731194 132.506699,70.685905 133.012817,69.225723 
	C134.894150,70.786331 136.710983,72.761848 138.852661,74.850471 
	C138.296371,77.858528 136.940231,78.966858 134.522385,76.224396 
	C133.655563,75.241188 132.748779,74.293175 131.741867,73.052788 
z"/>
<path fill="#734FDB" opacity="1.000000" stroke="none" 
	d="
M114.789154,56.071205 
	C115.100533,54.722942 115.534332,53.651024 116.042908,52.153755 
	C117.980324,53.730698 119.842972,55.732994 122.045403,57.841354 
	C121.427231,60.710243 120.037849,61.929619 117.582832,59.278931 
	C116.684563,58.309071 115.801552,57.325085 114.789154,56.071205 
z"/>
<path fill="#87B8F6" opacity="1.000000" stroke="none" 
	d="
M151.308533,93.176498 
	C152.079285,92.353699 152.953827,91.840118 153.987320,91.058563 
	C155.254196,91.736404 156.362137,92.682228 157.732162,93.825500 
	C157.670456,95.388435 157.346664,96.753922 157.034042,98.470047 
	C155.167587,97.042366 153.289948,95.264046 151.308533,93.176498 
z"/>
<path fill="#7531D3" opacity="1.000000" stroke="none" 
	d="
M43.765968,139.549377 
	C40.442535,136.337128 37.153427,133.088318 33.783772,129.925323 
	C31.483725,127.766327 31.509321,125.809860 33.792027,123.631721 
	C37.374500,120.213394 40.845482,116.678215 44.704407,113.406166 
	C45.354908,114.996475 45.664688,116.373154 45.772697,118.035599 
	C42.961208,121.056046 40.351490,123.790733 36.303822,128.032227 
	C39.949791,131.014297 43.391407,133.829224 46.430077,136.811432 
	C45.273415,137.835617 44.519688,138.692490 43.765968,139.549377 
z"/>
<path fill="#7244D8" opacity="1.000000" stroke="none" 
	d="
M45.974464,117.749825 
	C45.664688,116.373154 45.354908,114.996475 45.010246,113.263626 
	C48.452301,109.363914 51.929237,105.820374 55.810455,102.397438 
	C56.878902,103.364151 57.543072,104.210266 58.033058,105.353241 
	C55.467163,107.781120 53.075447,109.912132 50.431572,112.186722 
	C50.358585,113.540916 50.537754,114.751541 50.955452,116.153351 
	C51.852203,117.109337 52.510422,117.874130 53.101963,118.986526 
	C52.385674,119.877075 51.736065,120.420029 50.782715,120.811638 
	C48.977474,119.690140 47.475971,118.719978 45.974464,117.749825 
z"/>
<path fill="#765EDF" opacity="1.000000" stroke="none" 
	d="
M65.993347,91.997780 
	C70.121773,87.746712 74.250198,83.495644 78.815765,79.417786 
	C79.499466,80.696709 79.746025,81.802406 79.714157,83.098495 
	C76.242851,86.657997 73.049980,90.027107 69.471397,93.244339 
	C68.054909,92.727562 67.024124,92.362671 65.993347,91.997780 
z"/>
<path fill="#7668E2" opacity="1.000000" stroke="none" 
	d="
M79.992592,82.908104 
	C79.746025,81.802406 79.499466,80.696709 79.116882,79.272339 
	C82.091843,75.720413 85.202820,72.487167 89.022301,69.168434 
	C90.754921,69.505287 91.779053,69.927635 92.592194,70.639435 
	C88.251671,74.921959 84.122131,78.915031 79.992592,82.908104 
z"/>
<path fill="#734FDB" opacity="1.000000" stroke="none" 
	d="
M65.693192,92.141251 
	C67.024124,92.362671 68.054909,92.727562 69.266296,93.538551 
	C65.700356,97.675224 61.953800,101.365799 58.207245,105.056374 
	C57.543072,104.210266 56.878902,103.364151 56.086990,102.209961 
	C59.103851,98.696167 62.248447,95.490448 65.693192,92.141251 
z"/>
<path fill="#7A85E9" opacity="1.000000" stroke="none" 
	d="
M74.926941,171.046875 
	C72.365150,168.277588 69.803360,165.508301 67.135696,162.098267 
	C67.055962,161.230957 67.082100,161.004364 67.424225,160.669434 
	C69.304893,161.048096 71.156387,161.166809 72.366470,162.109161 
	C74.145515,163.494583 75.466629,165.468033 76.983047,167.531326 
	C76.297829,168.930069 75.612389,169.988464 74.926941,171.046875 
z"/>
<path fill="#7A5BDE" opacity="1.000000" stroke="none" 
	d="
M59.030319,154.850098 
	C56.718372,152.624008 54.406418,150.397903 52.025291,147.490631 
	C52.300179,145.577301 52.644241,144.345154 53.318192,143.180969 
	C56.440411,146.163193 59.232750,149.077454 61.691700,152.022705 
	C60.582314,152.985825 59.806316,153.917969 59.030319,154.850098 
z"/>
<path fill="#7B4AD9" opacity="1.000000" stroke="none" 
	d="
M52.988304,143.113022 
	C52.644241,144.345154 52.300179,145.577301 51.909298,147.200485 
	C49.254826,145.098694 46.647171,142.605865 43.902740,139.831207 
	C44.519688,138.692490 45.273415,137.835617 46.701576,136.949158 
	C49.246777,138.984070 51.117538,141.048553 52.988304,143.113022 
z"/>
<path fill="#7668E2" opacity="1.000000" stroke="none" 
	d="
M59.171417,155.161072 
	C59.806316,153.917969 60.582314,152.985825 61.985836,152.191162 
	C64.111656,155.145004 65.609955,157.961395 67.108246,160.777786 
	C67.082100,161.004364 67.055962,161.230957 66.991699,161.797607 
	C64.406555,159.915802 61.859531,157.693909 59.171417,155.161072 
z"/>
<path fill="#7C97EE" opacity="1.000000" stroke="none" 
	d="
M75.101608,171.327362 
	C75.612389,169.988464 76.297829,168.930069 77.297112,167.613647 
	C79.434425,169.500992 81.257889,171.646317 83.035583,174.155426 
	C82.659454,175.685608 82.329094,176.852020 81.998734,178.018448 
	C79.757912,175.881577 77.517090,173.744705 75.101608,171.327362 
z"/>
<path fill="#7DA6F2" opacity="1.000000" stroke="none" 
	d="
M82.135559,178.316879 
	C82.329094,176.852020 82.659454,175.685608 83.371872,174.251068 
	C85.488899,176.664413 87.223869,179.345901 88.983948,182.023376 
	C89.009064,182.019394 89.027954,181.972000 89.027954,181.972000 
	C85.371872,183.679199 84.173485,180.440140 82.135559,178.316879 
z"/>
<path fill="#87B8F6" opacity="1.000000" stroke="none" 
	d="
M96.012772,184.025528 
	C95.397598,185.656754 94.782425,187.287979 93.825241,189.135895 
	C91.968033,187.146912 90.452835,184.941223 88.982796,182.353760 
	C89.027954,181.972000 89.009064,182.019394 89.371559,181.986237 
	C91.826958,182.643906 93.919861,183.334717 96.012772,184.025528 
z"/>
<path fill="#7E77E5" opacity="1.000000" stroke="none" 
	d="
M92.803177,70.349991 
	C91.779053,69.927635 90.754921,69.505287 89.318291,69.019928 
	C90.904053,66.894920 92.902313,64.832932 95.195030,62.632061 
	C96.000259,63.349220 96.511040,64.205261 96.959404,65.758652 
	C95.532379,67.753998 94.167778,69.051994 92.803177,70.349991 
z"/>
<path fill="#824FDA" opacity="1.000000" stroke="none" 
	d="
M104.197563,70.934982 
	C105.159744,70.392799 106.121925,69.850624 107.172760,68.938583 
	C110.128937,71.484703 112.996445,74.400681 115.740692,77.731537 
	C114.755188,78.723938 113.892952,79.301483 112.731361,79.744827 
	C109.687195,76.718742 106.942383,73.826859 104.197563,70.934982 
z"/>
<path fill="#7B6BE2" opacity="1.000000" stroke="none" 
	d="
M123.006592,84.960480 
	C125.768478,87.682312 128.530350,90.404144 131.177277,93.520218 
	C130.376678,94.600784 129.691055,95.287109 128.703339,95.835968 
	C126.185379,93.345093 123.969521,90.991676 121.888168,88.269958 
	C122.350647,86.921265 122.678619,85.940872 123.006592,84.960480 
z"/>
<path fill="#7554DC" opacity="1.000000" stroke="none" 
	d="
M122.728798,84.785301 
	C122.678619,85.940872 122.350647,86.921265 121.594063,88.074112 
	C118.453880,85.457375 115.742294,82.668198 113.030708,79.879028 
	C113.892952,79.301483 114.755188,78.723938 115.913635,78.021118 
	C118.290237,80.133926 120.370621,82.372025 122.728798,84.785301 
z"/>
<path fill="#787AE6" opacity="1.000000" stroke="none" 
	d="
M129.005432,95.973427 
	C129.691055,95.287109 130.376678,94.600784 131.422119,93.775604 
	C133.421249,95.196259 135.060562,96.755775 136.816605,98.995605 
	C136.520813,100.678085 136.108307,101.680237 135.407730,102.485260 
	C133.081589,100.183243 131.043518,98.078331 129.005432,95.973427 
z"/>
<path fill="#768BEB" opacity="1.000000" stroke="none" 
	d="
M135.695786,102.682381 
	C136.108307,101.680237 136.520813,100.678085 136.995697,99.271561 
	C138.845413,100.823204 140.632736,102.779221 142.671783,105.243103 
	C142.228317,106.525436 141.533142,107.299896 140.546936,107.937981 
	C138.735886,106.095192 137.215836,104.388786 135.695786,102.682381 
z"/>
<path fill="#7CA0F0" opacity="1.000000" stroke="none" 
	d="
M140.837952,108.074356 
	C141.533142,107.299896 142.228317,106.525436 142.952515,105.425812 
	C144.569366,106.515221 146.157181,107.929810 147.891998,109.630272 
	C147.211594,110.601143 146.384216,111.286133 144.939392,111.864197 
	C143.160645,110.529633 141.999298,109.301994 140.837952,108.074356 
z"/>
<path fill="#FDFDFF" opacity="1.000000" stroke="none" 
	d="
M140.546936,107.937973 
	C141.999298,109.301994 143.160645,110.529633 144.602112,111.898605 
	C144.648178,113.433823 144.866699,115.192047 144.093796,116.152161 
	C141.921387,118.850800 139.340652,121.220749 136.781601,123.985458 
	C131.409836,129.414139 126.177422,134.577667 120.808762,140.010132 
	C113.531273,147.318817 106.390030,154.358551 99.042328,161.667572 
	C97.940422,161.580734 97.044975,161.224609 95.716354,160.504501 
	C93.382675,158.342819 91.482170,156.545120 89.439835,154.421295 
	C86.865944,151.720306 84.433884,149.345444 81.723206,146.796692 
	C79.630356,144.738724 77.816124,142.854645 75.732025,140.801117 
	C74.250099,139.297150 73.038025,137.962631 71.586151,136.362091 
	C69.232788,134.053070 67.119232,132.010056 64.731644,129.791901 
	C62.988346,128.069519 61.519077,126.522247 59.879211,124.685394 
	C57.528622,122.476845 55.348633,120.557877 53.168644,118.638916 
	C52.510422,117.874130 51.852203,117.109337 50.929146,115.762390 
	C50.670788,114.134537 50.677261,113.088844 50.683731,112.043144 
	C53.075447,109.912132 55.467163,107.781120 58.033058,105.353241 
	C61.953800,101.365799 65.700356,97.675224 69.652008,93.690437 
	C73.049980,90.027107 76.242851,86.657997 79.714157,83.098495 
	C84.122131,78.915031 88.251671,74.921959 92.592194,70.639435 
	C94.167778,69.051994 95.532379,67.753998 96.989487,66.128967 
	C99.259689,67.395683 101.437378,68.989433 103.906319,70.759079 
	C106.942383,73.826859 109.687195,76.718742 112.731361,79.744827 
	C115.742294,82.668198 118.453880,85.457375 121.459564,88.442413 
	C123.969521,90.991676 126.185379,93.345093 128.703339,95.835968 
	C131.043518,98.078331 133.081589,100.183243 135.407730,102.485260 
	C137.215836,104.388786 138.735886,106.095192 140.546936,107.937973 
z"/>
<path fill="#FBFBFE" opacity="1.000000" stroke="none" 
	d="
M95.977036,183.556244 
	C93.919861,183.334717 91.826958,182.643906 89.346443,181.990234 
	C87.223869,179.345901 85.488899,176.664413 83.417648,173.887299 
	C81.257889,171.646317 79.434425,169.500992 77.296890,167.273315 
	C75.466629,165.468033 74.145515,163.494583 72.366470,162.109161 
	C71.156387,161.166809 69.304893,161.048096 67.424225,160.669434 
	C65.609955,157.961395 64.111656,155.145004 62.319225,152.160172 
	C59.232750,149.077454 56.440411,146.163193 53.318188,143.180969 
	C51.117538,141.048553 49.246777,138.984070 47.104515,136.781860 
	C43.391407,133.829224 39.949791,131.014297 36.303822,128.032227 
	C40.351490,123.790733 42.961208,121.056046 45.772697,118.035599 
	C47.475971,118.719978 48.977474,119.690140 50.904198,121.117424 
	C53.544994,123.736282 55.760574,125.898018 58.079899,128.375854 
	C60.060707,130.316055 61.937771,131.940140 63.917084,133.857117 
	C65.370987,135.424225 66.722649,136.698456 68.206619,138.275482 
	C70.494148,140.560440 72.649345,142.542603 74.913193,144.824921 
	C76.953209,146.918976 78.884583,148.712875 80.916138,150.805359 
	C82.656845,152.743271 84.297371,154.382599 86.117905,156.301086 
	C88.873474,159.019028 91.449028,161.457825 94.024582,163.896622 
	C94.656105,167.831085 95.421875,171.750336 95.869576,175.705612 
	C96.144859,178.137604 95.933922,180.624649 95.977036,183.556244 
z"/>
<path fill="#7AB5F6" opacity="1.000000" stroke="none" 
	d="
M94.022202,163.517944 
	C91.449028,161.457825 88.873474,159.019028 86.500893,156.254150 
	C87.663132,155.534515 88.622398,155.140976 89.581665,154.747421 
	C91.482170,156.545120 93.382675,158.342819 95.422028,160.453278 
	C95.047188,161.557129 94.533501,162.348190 94.022202,163.517944 
z"/>
<path fill="#7A5BDE" opacity="1.000000" stroke="none" 
	d="
M57.976151,128.059753 
	C55.760574,125.898018 53.544994,123.736282 51.207932,121.268761 
	C51.736065,120.420029 52.385674,119.877075 53.101963,118.986526 
	C55.348633,120.557877 57.528622,122.476845 59.614304,124.854729 
	C59.005383,126.229012 58.490768,127.144386 57.976151,128.059753 
z"/>
<path fill="#7A5BDE" opacity="1.000000" stroke="none" 
	d="
M50.431572,112.186722 
	C50.677261,113.088844 50.670788,114.134537 50.690620,115.571198 
	C50.537754,114.751541 50.358585,113.540916 50.431572,112.186722 
z"/>
<path fill="#7DA6F2" opacity="1.000000" stroke="none" 
	d="
M89.439835,154.421295 
	C88.622398,155.140976 87.663132,155.534515 86.320877,155.974991 
	C84.297371,154.382599 82.656845,152.743271 81.047302,150.445770 
	C81.386124,148.848587 81.693970,147.909576 82.001823,146.970581 
	C84.433884,149.345444 86.865944,151.720306 89.439835,154.421295 
z"/>
<path fill="#787AE6" opacity="1.000000" stroke="none" 
	d="
M68.074303,137.972672 
	C66.722649,136.698456 65.370987,135.424225 64.043991,133.491241 
	C64.380989,131.877319 64.693329,130.922165 65.005676,129.967026 
	C67.119232,132.010056 69.232788,134.053070 71.197929,136.509293 
	C70.057777,137.272552 69.066040,137.622604 68.074303,137.972672 
z"/>
<path fill="#7B95EE" opacity="1.000000" stroke="none" 
	d="
M81.723206,146.796692 
	C81.693970,147.909576 81.386124,148.848587 80.947113,150.147186 
	C78.884583,148.712875 76.953209,146.918976 75.045914,144.464081 
	C75.380615,142.858902 75.691254,141.914734 76.001884,140.970566 
	C77.816124,142.854645 79.630356,144.738724 81.723206,146.796692 
z"/>
<path fill="#7668E2" opacity="1.000000" stroke="none" 
	d="
M64.731644,129.791901 
	C64.693329,130.922165 64.380989,131.877319 63.941742,133.198349 
	C61.937771,131.940140 60.060707,130.316055 58.079903,128.375854 
	C58.490768,127.144386 59.005383,126.229012 59.784904,125.144310 
	C61.519077,126.522247 62.988346,128.069519 64.731644,129.791901 
z"/>
<path fill="#7A85E9" opacity="1.000000" stroke="none" 
	d="
M75.732025,140.801117 
	C75.691254,141.914734 75.380615,142.858902 74.937263,144.163910 
	C72.649345,142.542603 70.494148,140.560440 68.206619,138.275482 
	C69.066040,137.622604 70.057777,137.272552 71.437737,136.775299 
	C73.038025,137.962631 74.250099,139.297150 75.732025,140.801117 
z"/>
</svg>